<?xml version="1.0" encoding="UTF-8"?><svg id="b" xmlns="http://www.w3.org/2000/svg" viewBox="0 0 11.55 11.85"><defs><style>.f{fill:#e47ed1;}.g{fill:#59e9e8;}</style></defs><g id="c"><g id="d"><g id="e"><rect class="g" x="0" y="0" width="11.55" height="11.85" rx="4.14" ry="4.14"/><g><path class="f" d="m5.78,10.66c-.75,0-1.48-.22-2.12-.64l-1.66.64.34-1.95c-.53-.81-.82-1.77-.82-2.78C1.52,3.32,3.43,1.19,5.78,1.19s4.26,2.12,4.26,4.73-1.91,4.73-4.26,4.73Z"/><g><g><path class="g" d="m5.78,3.06c-1.42,0-2.58,1.28-2.58,2.86,0,.66.21,1.27.55,1.76l-.17.99.84-.32c.4.28.86.44,1.36.44,1.42,0,2.58-1.28,2.58-2.86s-1.15-2.86-2.58-2.86Z"/><path class="g" d="m5.78,9.02c-.49,0-.96-.14-1.39-.42l-1.08.42.22-1.28c-.35-.53-.53-1.16-.53-1.82,0-1.7,1.25-3.09,2.78-3.09s2.78,1.39,2.78,3.09-1.25,3.09-2.78,3.09Zm-1.34-.92l.08.06c.38.26.81.4,1.25.4,1.31,0,2.37-1.18,2.37-2.63s-1.06-2.63-2.37-2.63-2.37,1.18-2.37,2.63c0,.59.17,1.15.5,1.62l.06.08-.12.7.59-.23Z"/></g><path class="f" d="m4.37,4.74s.16-.32.3-.34c.13-.02.3-.02.35.08.05.1.25.66.25.66,0,0,.04.1-.02.19-.05.09-.18.23-.18.23,0,0-.07.1,0,.2.07.1.17.29.39.53.22.24.64.41.64.41,0,0,.06,0,.1-.03.04-.04.24-.33.24-.33,0,0,.07-.1.18-.04.11.06.59.32.59.32,0,0,.06.02.06.12s-.03.32-.1.4c-.07.08-.27.32-.58.32s-1.04-.28-1.42-.71c-.39-.43-.73-.87-.82-1.27-.08-.4-.07-.58.03-.74Z"/></g></g></g></g></g></svg>